<svg xmlns="http://www.w3.org/2000/svg" xmlns:xlink="http://www.w3.org/1999/xlink" width="400" height="600" viewBox="0 0 400 600"><rect width="100%" height="100%" fill="#DDDDDD"/><path d="M83.04 304.89L95.14 304.89L95.14 291.89Q95.14 290.05 95.39 287.82L95.39 287.82L83.04 304.89ZM101.06 304.89L106.06 304.89L106.06 308.83Q106.06 309.38 105.70 309.78Q105.34 310.18 104.69 310.18L104.69 310.18L101.06 310.18L101.06 319.88L95.14 319.88L95.14 310.18L78.37 310.18Q77.68 310.18 77.16 309.75Q76.64 309.32 76.50 308.69L76.50 308.69L75.78 305.25L94.62 280.09L101.06 280.09L101.06 304.89ZM137.99 300L137.99 300Q137.99 305.20 136.87 309.03Q135.76 312.87 133.79 315.37Q131.83 317.88 129.15 319.10Q126.47 320.32 123.36 320.32L123.36 320.32Q120.25 320.32 117.60 319.10Q114.94 317.88 112.99 315.37Q111.04 312.87 109.94 309.03Q108.84 305.20 108.84 300L108.84 300Q108.84 294.77 109.94 290.95Q111.04 287.13 112.99 284.63Q114.94 282.13 117.60 280.90Q120.25 279.68 123.36 279.68L123.36 279.68Q126.47 279.68 129.15 280.90Q131.83 282.13 133.79 284.63Q135.76 287.13 136.87 290.95Q137.99 294.77 137.99 300ZM130.97 300L130.97 300Q130.97 295.68 130.34 292.85Q129.71 290.02 128.65 288.34Q127.59 286.66 126.22 285.99Q124.84 285.31 123.36 285.31L123.36 285.31Q121.90 285.31 120.54 285.99Q119.18 286.66 118.13 288.34Q117.09 290.02 116.47 292.85Q115.85 295.68 115.85 300L115.85 300Q115.85 304.32 116.47 307.15Q117.09 309.98 118.13 311.66Q119.18 313.34 120.54 314.01Q121.90 314.69 123.36 314.69L123.36 314.69Q124.84 314.69 126.22 314.01Q127.59 313.34 128.65 311.66Q129.71 309.98 130.34 307.15Q130.97 304.32 130.97 300ZM169.89 300L169.89 300Q169.89 305.20 168.77 309.03Q167.66 312.87 165.69 315.37Q163.73 317.88 161.05 319.10Q158.37 320.32 155.26 320.32L155.26 320.32Q152.15 320.32 149.50 319.10Q146.84 317.88 144.89 315.37Q142.94 312.87 141.84 309.03Q140.74 305.20 140.74 300L140.74 300Q140.74 294.77 141.84 290.95Q142.94 287.13 144.89 284.63Q146.84 282.13 149.50 280.90Q152.15 279.68 155.26 279.68L155.26 279.68Q158.37 279.68 161.05 280.90Q163.73 282.13 165.69 284.63Q167.66 287.13 168.77 290.95Q169.89 294.77 169.89 300ZM162.88 300L162.88 300Q162.88 295.68 162.24 292.85Q161.61 290.02 160.55 288.34Q159.49 286.66 158.12 285.99Q156.74 285.31 155.26 285.31L155.26 285.31Q153.80 285.31 152.44 285.99Q151.08 286.66 150.03 288.34Q148.99 290.02 148.37 292.85Q147.75 295.68 147.75 300L147.75 300Q147.75 304.32 148.37 307.15Q148.99 309.98 150.03 311.66Q151.08 313.34 152.44 314.01Q153.80 314.69 155.26 314.69L155.26 314.69Q156.74 314.69 158.12 314.01Q159.49 313.34 160.55 311.66Q161.61 309.98 162.24 307.15Q162.88 304.32 162.88 300ZM213.56 310.78L209.96 314.33L200.63 305.00L191.23 314.38L187.63 310.83L197.03 301.40L188.07 292.44L191.64 288.86L200.61 297.83L209.52 288.92L213.15 292.49L204.21 301.43L213.56 310.78ZM256.05 280.12L244.25 294.56L242.87 296.26Q244.03 295.68 245.36 295.37Q246.70 295.05 248.24 295.05L248.24 295.05Q250.49 295.05 252.62 295.79Q254.75 296.53 256.38 298.03Q258.00 299.53 258.99 301.76Q259.98 303.99 259.98 306.96L259.98 306.96Q259.98 309.74 258.96 312.17Q257.94 314.60 256.10 316.42Q254.26 318.23 251.66 319.28Q249.06 320.32 245.93 320.32L245.93 320.32Q242.74 320.32 240.21 319.31Q237.68 318.29 235.89 316.46Q234.10 314.63 233.15 312.06Q232.20 309.49 232.20 306.35L232.20 306.35Q232.20 303.55 233.34 300.59Q234.49 297.63 236.88 294.44L236.88 294.44L246.37 281.71Q246.86 281.05 247.81 280.58Q248.76 280.12 250.00 280.12L250.00 280.12L256.05 280.12ZM245.79 314.77L245.79 314.77Q247.41 314.77 248.77 314.22Q250.13 313.67 251.11 312.68Q252.09 311.69 252.64 310.35Q253.19 309.02 253.19 307.45L253.19 307.45Q253.19 305.75 252.66 304.39Q252.14 303.02 251.18 302.08Q250.22 301.13 248.87 300.63Q247.52 300.14 245.90 300.14L245.90 300.14Q244.28 300.14 242.96 300.69Q241.64 301.24 240.70 302.21Q239.77 303.19 239.24 304.52Q238.72 305.86 238.72 307.40L238.72 307.40Q238.72 309.05 239.17 310.41Q239.63 311.77 240.52 312.73Q241.42 313.69 242.74 314.23Q244.06 314.77 245.79 314.77ZM292.32 300L292.32 300Q292.32 305.20 291.20 309.03Q290.09 312.87 288.12 315.37Q286.16 317.88 283.48 319.10Q280.80 320.32 277.69 320.32L277.69 320.32Q274.58 320.32 271.93 319.10Q269.27 317.88 267.32 315.37Q265.37 312.87 264.27 309.03Q263.17 305.20 263.17 300L263.17 300Q263.17 294.77 264.27 290.95Q265.37 287.13 267.32 284.63Q269.27 282.13 271.93 280.90Q274.58 279.68 277.69 279.68L277.69 279.68Q280.80 279.68 283.48 280.90Q286.16 282.13 288.12 284.63Q290.09 287.13 291.20 290.95Q292.32 294.77 292.32 300ZM285.31 300L285.31 300Q285.31 295.68 284.67 292.85Q284.04 290.02 282.98 288.34Q281.92 286.66 280.55 285.99Q279.17 285.31 277.69 285.31L277.69 285.31Q276.23 285.31 274.87 285.99Q273.51 286.66 272.46 288.34Q271.42 290.02 270.80 292.85Q270.18 295.68 270.18 300L270.18 300Q270.18 304.32 270.80 307.15Q271.42 309.98 272.46 311.66Q273.51 313.34 274.87 314.01Q276.23 314.69 277.69 314.69L277.69 314.69Q279.17 314.69 280.55 314.01Q281.92 313.34 282.98 311.66Q284.04 309.98 284.67 307.15Q285.31 304.32 285.31 300ZM324.22 300L324.22 300Q324.22 305.20 323.10 309.03Q321.99 312.87 320.02 315.37Q318.06 317.88 315.38 319.10Q312.69 320.32 309.59 320.32L309.59 320.32Q306.48 320.32 303.83 319.10Q301.17 317.88 299.22 315.37Q297.27 312.87 296.17 309.03Q295.07 305.20 295.07 300L295.07 300Q295.07 294.77 296.17 290.95Q297.27 287.13 299.22 284.63Q301.17 282.13 303.83 280.90Q306.48 279.68 309.59 279.68L309.59 279.68Q312.69 279.68 315.38 280.90Q318.06 282.13 320.02 284.63Q321.99 287.13 323.10 290.95Q324.22 294.77 324.22 300ZM317.20 300L317.20 300Q317.20 295.68 316.57 292.85Q315.94 290.02 314.88 288.34Q313.82 286.66 312.45 285.99Q311.07 285.31 309.59 285.31L309.59 285.31Q308.13 285.31 306.77 285.99Q305.41 286.66 304.36 288.34Q303.32 290.02 302.70 292.85Q302.08 295.68 302.08 300L302.08 300Q302.08 304.32 302.70 307.15Q303.32 309.98 304.36 311.66Q305.41 313.34 306.77 314.01Q308.13 314.69 309.59 314.69L309.59 314.69Q311.07 314.69 312.45 314.01Q313.82 313.34 314.88 311.66Q315.94 309.98 316.57 307.15Q317.20 304.32 317.20 300Z" fill="#999999"/></svg>